<svg xmlns="http://www.w3.org/2000/svg" viewBox="0 0 64 64">
  <!-- Shield -->
  <path d="M32 4 L56 16 L56 34 C56 48 44 58 32 62 C20 58 8 48 8 34 L8 16 Z" fill="#0f172a" stroke="#f97316" stroke-width="2"/>

  <!-- Left sword -->
  <g transform="rotate(-35 32 32)">
    <!-- Blade -->
    <path d="M30 10 L32 8 L34 10 L34 38 L30 38 Z" fill="#cbd5e1"/>
    <path d="M32 8 L34 10 L34 38 L32 38 Z" fill="#94a3b8"/>
    <!-- Guard -->
    <rect x="25" y="38" width="14" height="3" rx="1.5" fill="#f97316"/>
    <!-- Grip -->
    <rect x="30.5" y="41" width="3" height="8" rx="1" fill="#92400e"/>
    <line x1="32" y1="42" x2="32" y2="48" stroke="#78350f" stroke-width="0.5" opacity="0.5"/>
    <!-- Pommel -->
    <circle cx="32" cy="50.5" r="2.5" fill="#f97316"/>
  </g>

  <!-- Right sword -->
  <g transform="rotate(35 32 32)">
    <!-- Blade -->
    <path d="M30 10 L32 8 L34 10 L34 38 L30 38 Z" fill="#cbd5e1"/>
    <path d="M32 8 L34 10 L34 38 L32 38 Z" fill="#94a3b8"/>
    <!-- Guard -->
    <rect x="25" y="38" width="14" height="3" rx="1.5" fill="#f97316"/>
    <!-- Grip -->
    <rect x="30.5" y="41" width="3" height="8" rx="1" fill="#92400e"/>
    <line x1="32" y1="42" x2="32" y2="48" stroke="#78350f" stroke-width="0.5" opacity="0.5"/>
    <!-- Pommel -->
    <circle cx="32" cy="50.5" r="2.5" fill="#f97316"/>
  </g>
</svg>
